<svg width="31" height="30" viewBox="0 0 31 30" fill="none" xmlns="http://www.w3.org/2000/svg">
<rect x="0.5" width="30" height="30" rx="15" fill="#5F2167"/>
<path fill-rule="evenodd" clip-rule="evenodd" d="M14.4881 19.8524H12.6745L10.0201 9.36264C9.97891 9.20602 9.99951 9.04114 10.0819 8.89689C10.1644 8.75259 10.3004 8.6496 10.4611 8.60839L13.1361 8.01896C13.4535 7.9365 13.7915 8.13021 13.8821 8.45996L14.7395 11.642C14.7807 11.8027 14.7601 11.9675 14.6776 12.1118C14.5952 12.2561 14.4592 12.3591 14.2984 12.4003L14.2655 12.4127L15.2588 16.3407H20.0482C20.5758 16.3407 21.0003 16.7652 21.0003 17.2887V19.8524H18.2141V22H17.5134V19.8524H15.1887V22H14.4881V19.8524ZM13.2227 19.1517H20.2955V17.2804C20.2955 17.1444 20.1801 17.0331 20.0441 17.0331H14.7106L13.4288 11.9593L14.0388 11.7409L13.2227 8.71143L10.7208 9.26373L13.2227 19.1517Z" fill="#FAFBFD"/>
</svg>
