<svg width="30" height="30" viewBox="0 0 30 30" fill="none" xmlns="http://www.w3.org/2000/svg">
<rect x="6.10352e-05" width="30" height="30" rx="15" fill="#B5BAC7"/>
<path fill-rule="evenodd" clip-rule="evenodd" d="M21.1816 9.35059H13.2686C12.8162 9.35059 12.4501 9.71663 12.4501 10.169V13.1878H13.0629V12.3447H21.3873V15.347C21.3873 15.4622 21.2927 15.5526 21.1816 15.5526H18.1217V16.1654H21.1816C21.634 16.1654 22.0001 15.7994 22.0001 15.347V10.169C22.0001 9.71663 21.634 9.35059 21.1816 9.35059ZM21.3873 11.6785H13.0629V11.3042H21.3873V11.6785ZM21.3873 10.6378H13.0629V10.169C13.0629 10.0539 13.1575 9.96339 13.2686 9.96339H21.1816C21.2968 9.96339 21.3873 10.058 21.3873 10.169V10.6378Z" fill="#FAFBFD"/>
<path d="M12.8162 16.3873H8.97891V16.8809H12.8162V16.3873Z" fill="#FAFBFD"/>
<path d="M8.97891 15.4005H12.8162V15.894H8.97891V15.4005Z" fill="#FAFBFD"/>
<path d="M14.2638 16.5234L14.2474 16.511L13.9883 16.8524L14.0047 16.8647C14.1322 16.9634 14.2063 17.1074 14.2063 17.2678C14.2063 17.4241 14.1322 17.5681 14.0088 17.6668L13.9924 17.6791L14.2433 17.9998L14.2556 18.0163L14.2721 18.0039C14.5024 17.823 14.634 17.5557 14.634 17.2678C14.634 16.9758 14.5024 16.7044 14.2638 16.5234Z" fill="#FAFBFD"/>
<path d="M14.7574 15.8941L14.7739 15.9065C15.1934 16.2396 15.4319 16.7332 15.4319 17.272C15.4319 17.8025 15.1975 18.296 14.7821 18.6291L14.7656 18.6414L14.4942 18.3083L14.5106 18.296C14.8232 18.0452 15.0042 17.6709 15.0042 17.272C15.0042 16.8689 14.8232 16.4946 14.5065 16.2437L14.4901 16.2314L14.7574 15.8941Z" fill="#FAFBFD"/>
<path d="M15.2797 15.2855L15.2633 15.2732L15.0042 15.5899L14.9918 15.6063L15.0083 15.6187C15.51 16.0259 15.7979 16.6263 15.7979 17.2679C15.7979 17.9095 15.51 18.51 15.0124 18.9131L14.9959 18.9253L15.2551 19.242L15.2674 19.2585L15.2838 19.2461C15.8843 18.7608 16.2257 18.037 16.2257 17.2679C16.2257 16.4947 15.8802 15.7708 15.2797 15.2855Z" fill="#FAFBFD"/>
<path fill-rule="evenodd" clip-rule="evenodd" d="M8.8185 13.8337H16.7315C17.184 13.8337 17.55 14.1997 17.55 14.6521V19.8302C17.55 20.2826 17.184 20.6486 16.7315 20.6486H8.8185C8.36611 20.6486 8.00006 20.2826 8.00006 19.8302V14.6521C8.00006 14.1997 8.36611 13.8337 8.8185 13.8337ZM8.61286 18.3329H9.71921C9.95773 18.3329 10.151 18.5262 10.1552 18.7647V20.0358H16.7315C16.8426 20.0358 16.9372 19.9454 16.9372 19.8302V14.6521C16.9372 14.5411 16.8467 14.4465 16.7315 14.4465H8.8185C8.70748 14.4465 8.61286 14.537 8.61286 14.6521V18.3329ZM8.61286 18.9457V19.8302C8.61286 19.9413 8.70336 20.0358 8.8185 20.0358H9.54236V18.9457H8.61286Z" fill="#FAFBFD"/>
</svg>
